{"asset":{"generator":"3D Builder","version":"2.0"},"scene":0,"scenes":[{"nodes":[0]}],"nodes":[{"mesh":0,"matrix":[1,0,0,0,0,-1.1920928955078125E-7,-0.99999988079071045,0,0,0.99999988079071045,-1.1920928955078125E-7,0,0,0,0,1]}],"meshes":[{"primitives":[{"attributes":{"POSITION":0},"mode":4,"indices":1,"material":0}]}],"materials":[{"name":"Metallic","pbrMetallicRoughness":{"baseColorFactor":[0,0.3515326976776123,0.80695235729217529,1],"metallicFactor":0,"roughnessFactor":0.45999997854232788},"alphaMode":"OPAQUE"}],"accessors":[{"bufferView":0,"byteOffset":0,"count":5866,"componentType":5126,"type":"VEC3","min":[-0.046970486640930176,-0.0461760088801384,0],"max":[0.04697047546505928,0.069603964686393738,0.065627835690975189]},{"bufferView":1,"byteOffset":0,"count":35934,"componentType":5125,"type":"SCALAR"}],"bufferViews":[{"buffer":0,"byteOffset":0,"byteLength":70392,"byteStride":12,"target":34962},{"buffer":0,"byteOffset":70392,"byteLength":143736,"target":34963}],"buffers":[{"byteLength":214128,"uri":"Castle.bin"}]}