{"asset":{"generator":"3D Builder","version":"2.0"},"scene":0,"scenes":[{"nodes":[0]}],"nodes":[{"mesh":0,"matrix":[1,0,0,0,0,-1.1920928955078125E-7,-0.99999988079071045,0,0,0.99999988079071045,-1.1920928955078125E-7,0,0,0,0,1]}],"meshes":[{"primitives":[{"attributes":{"POSITION":0},"mode":4,"indices":2,"material":0},{"attributes":{"POSITION":1},"mode":4,"indices":3,"material":1}]}],"materials":[{"name":"Turquoise_1_0","pbrMetallicRoughness":{"baseColorFactor":[0,0.3515326976776123,0.80695235729217529,1],"metallicFactor":0,"roughnessFactor":0.498039186000824},"alphaMode":"OPAQUE"},{"name":"Green","pbrMetallicRoughness":{"baseColorFactor":[0.015208514407277107,0.49693304300308228,0.072271861135959625,1],"metallicFactor":0,"roughnessFactor":1},"alphaMode":"OPAQUE"}],"accessors":[{"bufferView":0,"byteOffset":0,"count":757,"componentType":5126,"type":"VEC3","min":[-0.058999534696340561,-0.0461946465075016,0],"max":[0.058999534696340561,0.0461946465075016,0.096452221274375916]},{"bufferView":0,"byteOffset":9084,"count":52,"componentType":5126,"type":"VEC3","min":[0.0427032932639122,-0.0092534879222512245,5.4106847890977861E-9],"max":[0.050004150718450546,0.0075690178200602531,0.018253309652209282]},{"bufferView":1,"byteOffset":0,"count":4380,"componentType":5125,"type":"SCALAR"},{"bufferView":1,"byteOffset":17520,"count":150,"componentType":5125,"type":"SCALAR"}],"bufferViews":[{"buffer":0,"byteOffset":0,"byteLength":9708,"byteStride":12,"target":34962},{"buffer":0,"byteOffset":9708,"byteLength":18120,"target":34963}],"buffers":[{"byteLength":27828,"uri":"hut.bin"}]}