{"asset":{"generator":"3D Builder","version":"2.0"},"scene":0,"scenes":[{"nodes":[0]}],"nodes":[{"mesh":0,"matrix":[0.99999994039535522,0,0,0,0,-1.1920928244535389E-7,-0.99999982118606567,0,0,0.99999982118606567,-1.1920928244535389E-7,0,0,-0.0080306483432650566,9.5732799465508833E-10,1]}],"meshes":[{"primitives":[{"attributes":{"POSITION":0},"mode":4,"indices":1,"material":0}]}],"materials":[{"name":"Yellow","pbrMetallicRoughness":{"baseColorFactor":[0.99110221862792969,0.87962257862091064,0,1],"metallicFactor":0,"roughnessFactor":1},"alphaMode":"OPAQUE"}],"accessors":[{"bufferView":0,"byteOffset":0,"count":175,"componentType":5126,"type":"VEC3","min":[-0.030517552047967911,-0.030695384368300438,0.0080306492745876312],"max":[0.030702389776706696,0.030937597155570984,0.010000000707805157]},{"bufferView":1,"byteOffset":0,"count":1050,"componentType":5125,"type":"SCALAR"}],"bufferViews":[{"buffer":0,"byteOffset":0,"byteLength":2100,"byteStride":12,"target":34962},{"buffer":0,"byteOffset":2100,"byteLength":4200,"target":34963}],"buffers":[{"byteLength":6300,"uri":"Ring.bin"}]}