{"asset":{"generator":"3D Builder","version":"2.0"},"scene":0,"scenes":[{"nodes":[0]}],"nodes":[{"mesh":0,"matrix":[1,0,0,0,0,-1.1920928955078125E-7,-0.99999988079071045,0,0,0.99999988079071045,-1.1920928955078125E-7,0,0,0,0,1]}],"meshes":[{"primitives":[{"attributes":{"POSITION":0},"mode":4,"indices":1,"material":0}]}],"materials":[{"name":"Metallic","pbrMetallicRoughness":{"baseColorFactor":[0.07618539035320282,0.32314324378967285,0.78353792428970337,1],"metallicFactor":0,"roughnessFactor":0.43999999761581421},"alphaMode":"OPAQUE"}],"accessors":[{"bufferView":0,"byteOffset":0,"count":3273,"componentType":5126,"type":"VEC3","min":[-0.059000067412853241,-0.028391938656568527,6.0186344796875346E-10],"max":[0.0070556965656578541,0.028812436386942863,0.11242623627185822]},{"bufferView":1,"byteOffset":0,"count":19836,"componentType":5125,"type":"SCALAR"}],"bufferViews":[{"buffer":0,"byteOffset":0,"byteLength":39276,"byteStride":12,"target":34962},{"buffer":0,"byteOffset":39276,"byteLength":79344,"target":34963}],"buffers":[{"byteLength":118620,"uri":"windmill.bin"}]}