{"asset":{"generator":"3D Builder","version":"2.0"},"scene":0,"scenes":[{"nodes":[0]}],"nodes":[{"mesh":0,"matrix":[0.35609927773475647,0,0,0,0,-4.2450341908306655E-8,-0.35609924793243408,0,0,0.35609924793243408,-4.2450341908306655E-8,0,0.70616650581359863,0.0001780359452823177,-0.11414149403572083,1]}],"meshes":[{"primitives":[{"attributes":{"POSITION":0},"mode":4,"indices":17,"material":0},{"attributes":{"POSITION":1},"mode":4,"indices":18,"material":0},{"attributes":{"POSITION":2},"mode":4,"indices":19,"material":0},{"attributes":{"POSITION":3},"mode":4,"indices":20,"material":0},{"attributes":{"POSITION":4},"mode":4,"indices":21,"material":1},{"attributes":{"POSITION":5},"mode":4,"indices":22,"material":0},{"attributes":{"POSITION":6},"mode":4,"indices":23,"material":0},{"attributes":{"POSITION":7},"mode":4,"indices":24,"material":0},{"attributes":{"POSITION":8},"mode":4,"indices":25,"material":0},{"attributes":{"POSITION":9},"mode":4,"indices":26,"material":0},{"attributes":{"POSITION":10},"mode":4,"indices":27,"material":0},{"attributes":{"POSITION":11},"mode":4,"indices":28,"material":0},{"attributes":{"POSITION":12},"mode":4,"indices":29,"material":0},{"attributes":{"POSITION":13},"mode":4,"indices":30,"material":0},{"attributes":{"POSITION":14},"mode":4,"indices":31,"material":0},{"attributes":{"POSITION":15},"mode":4,"indices":32,"material":0},{"attributes":{"POSITION":16},"mode":4,"indices":33,"material":0}]}],"materials":[{"name":"Green","pbrMetallicRoughness":{"baseColorFactor":[0.015208514407277107,0.49693304300308228,0.072271861135959625,1],"metallicFactor":0,"roughnessFactor":1},"alphaMode":"OPAQUE"},{"name":"Turquoise","pbrMetallicRoughness":{"baseColorFactor":[0,0.3515326976776123,0.80695247650146484,1],"metallicFactor":0,"roughnessFactor":1},"alphaMode":"OPAQUE"}],"accessors":[{"bufferView":0,"byteOffset":0,"count":75,"componentType":5126,"type":"VEC3","min":[0.99792104959487915,-0.57217329740524292,3.0388931918423623E-5],"max":[1.0924026966094971,-0.51054191589355469,0.0124379713088274]},{"bufferView":0,"byteOffset":900,"count":80,"componentType":5126,"type":"VEC3","min":[-1,-0.12215147167444229,-4.2799907532753423E-5],"max":[1.0159472227096558,-0.1135154664516449,0.012098397128283978]},{"bufferView":0,"byteOffset":1860,"count":96,"componentType":5126,"type":"VEC3","min":[-1,-0.52880531549453735,-4.2799907532753423E-5],"max":[1.0159472227096558,-0.52016937732696533,0.012098397128283978]},{"bufferView":0,"byteOffset":3012,"count":132,"componentType":5126,"type":"VEC3","min":[-1,-0.52138853073120117,-0.000499999790918082],"max":[0.9999961256980896,-0.12144026905298233,0.00046519996249116957]},{"bufferView":0,"byteOffset":4596,"count":565,"componentType":5126,"type":"VEC3","min":[0.9999961256980896,-0.56756573915481567,-0.000499999790918082],"max":[1.4032465219497681,-0.072519868612289429,0.00041439998312853277]},{"bufferView":0,"byteOffset":11376,"count":46,"componentType":5126,"type":"VEC3","min":[-1.0056174993515015,-0.52933406829833984,3.0341763704200275E-5],"max":[-0.99432748556137085,-0.11293534934520721,0.012437954545021057]},{"bufferView":0,"byteOffset":11928,"count":61,"componentType":5126,"type":"VEC3","min":[1.0883115530014038,-0.57899051904678345,3.0391200198209845E-5],"max":[1.1978509426116943,-0.56200778484344482,0.012437970377504826]},{"bufferView":0,"byteOffset":12660,"count":61,"componentType":5126,"type":"VEC3","min":[1.1927062273025513,-0.57899051904678345,3.039433249796275E-5],"max":[1.2985321283340454,-0.52911174297332764,0.012437966652214527]},{"bufferView":0,"byteOffset":13392,"count":51,"componentType":5126,"type":"VEC3","min":[1.2893722057342529,-0.54135763645172119,3.0397191949305125E-5],"max":[1.3744982481002808,-0.4562315046787262,0.012437962926924229]},{"bufferView":0,"byteOffset":14004,"count":51,"componentType":5126,"type":"VEC3","min":[1.3647637367248535,-0.46465307474136353,3.0400378818740137E-5],"max":[1.4131958484649658,-0.35841330885887146,0.012437960132956505]},{"bufferView":0,"byteOffset":14616,"count":53,"componentType":5126,"type":"VEC3","min":[1.396213173866272,-0.36375105381011963,3.0403678465518169E-5],"max":[1.4131958484649658,-0.2542155385017395,0.012437958270311356]},{"bufferView":0,"byteOffset":15252,"count":67,"componentType":5126,"type":"VEC3","min":[1.34253990650177,-0.25943595170974731,3.0407160011236556E-5],"max":[1.4064567089080811,-0.1594550758600235,0.012437954545021057]},{"bufferView":0,"byteOffset":16056,"count":65,"componentType":5126,"type":"VEC3","min":[1.2625118494033813,-0.16744327545166016,2.6227105990983546E-5],"max":[1.3535022735595703,-0.0908435732126236,0.012433769181370735]},{"bufferView":0,"byteOffset":16836,"count":42,"componentType":5126,"type":"VEC3","min":[1.1704796552658081,-0.1026013121008873,2.6230145522276871E-5],"max":[1.2707507610321045,-0.062074031680822372,0.012433766387403011]},{"bufferView":0,"byteOffset":17340,"count":54,"componentType":5126,"type":"VEC3","min":[1.0655579566955566,-0.087448865175247192,2.622877036628779E-5],"max":[1.1751967668533325,-0.062074024230241776,0.012433767318725586]},{"bufferView":0,"byteOffset":17988,"count":76,"componentType":5126,"type":"VEC3","min":[0.99500030279159546,-0.13275524973869324,2.6227362468489446E-5],"max":[1.0741338729858398,-0.074761435389518738,0.012433771044015884]},{"bufferView":0,"byteOffset":18900,"count":408,"componentType":5126,"type":"VEC3","min":[1.182091236114502,-0.33437639474868774,-0.000499999790918082],"max":[1.20977783203125,-0.30668821930885315,0.00041439998312853277]},{"bufferView":1,"byteOffset":0,"count":240,"componentType":5125,"type":"SCALAR"},{"bufferView":1,"byteOffset":960,"count":330,"componentType":5125,"type":"SCALAR"},{"bufferView":1,"byteOffset":2280,"count":396,"componentType":5125,"type":"SCALAR"},{"bufferView":1,"byteOffset":3864,"count":507,"componentType":5125,"type":"SCALAR"},{"bufferView":1,"byteOffset":5892,"count":1905,"componentType":5125,"type":"SCALAR"},{"bufferView":1,"byteOffset":13512,"count":156,"componentType":5125,"type":"SCALAR"},{"bufferView":1,"byteOffset":14136,"count":207,"componentType":5125,"type":"SCALAR"},{"bufferView":1,"byteOffset":14964,"count":198,"componentType":5125,"type":"SCALAR"},{"bufferView":1,"byteOffset":15756,"count":162,"componentType":5125,"type":"SCALAR"},{"bufferView":1,"byteOffset":16404,"count":165,"componentType":5125,"type":"SCALAR"},{"bufferView":1,"byteOffset":17064,"count":168,"componentType":5125,"type":"SCALAR"},{"bufferView":1,"byteOffset":17736,"count":210,"componentType":5125,"type":"SCALAR"},{"bufferView":1,"byteOffset":18576,"count":204,"componentType":5125,"type":"SCALAR"},{"bufferView":1,"byteOffset":19392,"count":129,"componentType":5125,"type":"SCALAR"},{"bufferView":1,"byteOffset":19908,"count":180,"componentType":5125,"type":"SCALAR"},{"bufferView":1,"byteOffset":20628,"count":249,"componentType":5125,"type":"SCALAR"},{"bufferView":1,"byteOffset":21624,"count":1464,"componentType":5125,"type":"SCALAR"}],"bufferViews":[{"buffer":0,"byteOffset":0,"byteLength":23796,"byteStride":12,"target":34962},{"buffer":0,"byteOffset":23796,"byteLength":27480,"target":34963}],"buffers":[{"byteLength":51276,"uri":"course_standard.bin"}]}